<mxfile host="Electron" modified="2024-05-26T09:46:50.407Z" agent="Mozilla/5.0 (Macintosh; Intel Mac OS X 10_15_7) AppleWebKit/537.36 (KHTML, like Gecko) draw.io/23.1.5 Chrome/120.0.6099.109 Electron/28.1.0 Safari/537.36" etag="3WlKhj07PKj1UUn83t4A" version="23.1.5" type="device">
  <diagram id="kHpn-Lv7rFA_yW4DJ2HN" name="第 1 页">
    <mxGraphModel dx="1025" dy="854" grid="1" gridSize="10" guides="1" tooltips="1" connect="1" arrows="1" fold="1" page="1" pageScale="1" pageWidth="340" pageHeight="50" math="0" shadow="0">
      <root>
        <mxCell id="0" />
        <mxCell id="1" parent="0" />
        <mxCell id="VluHy-5mn5-crmqwVEbc-1" value="标志位" style="rounded=0;whiteSpace=wrap;html=1;fillColor=none;strokeColor=#000000;fontSize=13;" parent="1" vertex="1">
          <mxGeometry width="60" height="45" as="geometry" />
        </mxCell>
        <mxCell id="VluHy-5mn5-crmqwVEbc-2" value="原始数据长度" style="rounded=0;whiteSpace=wrap;html=1;fillColor=none;strokeColor=#000000;fontSize=13;" parent="1" vertex="1">
          <mxGeometry x="60" width="90" height="45" as="geometry" />
        </mxCell>
        <mxCell id="VluHy-5mn5-crmqwVEbc-4" value="压缩后的数据" style="rounded=0;whiteSpace=wrap;html=1;fillColor=none;strokeColor=#000000;fontSize=13;" parent="1" vertex="1">
          <mxGeometry x="150" width="190" height="45" as="geometry" />
        </mxCell>
      </root>
    </mxGraphModel>
  </diagram>
</mxfile>
